<svg id="LOGHI" xmlns="http://www.w3.org/2000/svg" xmlns:xlink="http://www.w3.org/1999/xlink" viewBox="0 0 150 150"><defs><style>.cls-1{fill:url(#Sfumatura_senza_nome_18);}.cls-2{fill:#2277d3;}.cls-3{fill:#fff;}.cls-4{fill:#323232;}</style><linearGradient id="Sfumatura_senza_nome_18" x1="54.58" y1="-1718.9" x2="121" y2="-1785.33" gradientTransform="matrix(1, 0, 0, -1, 0, -1649)" gradientUnits="userSpaceOnUse"><stop offset="0" stop-color="#2c91e7"/><stop offset="0.94" stop-color="#2277d3"/></linearGradient></defs><g id="Desk_Booking" data-name="Desk Booking"><path class="cls-1" d="M104.17,46.8H83.91C82,50.85,79.75,55,77.43,59h2.18a1,1,0,0,1,.71.29,1,1,0,0,1,.3.72V70.1a1,1,0,0,1-1,1H69.73c-4.54,6.69-8.05,11.14-8.05,11.14s-3.57-4.58-8.1-11.34V145H74.34V124.74a1,1,0,0,1,.3-.71,1,1,0,0,1,.71-.3h15.2a1,1,0,0,1,1,1V145h20.76V54.85a8,8,0,0,0-.63-3.09,8.22,8.22,0,0,0-1.78-2.62,8,8,0,0,0-2.63-1.74A8.12,8.12,0,0,0,104.17,46.8ZM80.62,107.57a1,1,0,0,1-.3.72,1,1,0,0,1-.71.3H69.48a1,1,0,0,1-1-1V97.45a1,1,0,0,1,1-1H79.61a1,1,0,0,1,.71.3,1,1,0,0,1,.3.72Zm0-18.73a1,1,0,0,1-.3.71,1,1,0,0,1-.71.3H69.48a1,1,0,0,1-.72-.3,1,1,0,0,1-.29-.71V78.71a1,1,0,0,1,1-1H79.61a1,1,0,0,1,.71.3,1,1,0,0,1,.3.72Zm16.71,18.73a1,1,0,0,1-1,1H86.19a1,1,0,0,1-.71-.3,1,1,0,0,1-.3-.72V97.45a1,1,0,0,1,.3-.72,1,1,0,0,1,.71-.3H96.32a1,1,0,0,1,1,1Zm0-18.73a1,1,0,0,1-.29.71,1,1,0,0,1-.72.3H86.19a1,1,0,0,1-.71-.3,1,1,0,0,1-.3-.71V78.71a1,1,0,0,1,.3-.72,1,1,0,0,1,.71-.3H96.32a1,1,0,0,1,1,1Zm0-18.74a1,1,0,0,1-.29.71,1,1,0,0,1-.72.3H86.19a1,1,0,0,1-1-1V60a1,1,0,0,1,.3-.72,1,1,0,0,1,.71-.29H96.32a1,1,0,0,1,1,1Z"/><path class="cls-2" d="M85.69,29c0,16.7-24,47.48-24,47.48s-24-30.78-24-47.48a24,24,0,1,1,48,0Z"/><path class="cls-3" d="M61.68,47.78A18.26,18.26,0,1,0,43.42,29.52,18.25,18.25,0,0,0,61.68,47.78Z"/><path class="cls-4" d="M69.51,18a2.28,2.28,0,0,0-1.36.21,2.32,2.32,0,0,0-1,.94,2.41,2.41,0,0,0-.33,1.34,2.46,2.46,0,0,0,.48,1.3,2.39,2.39,0,0,0,3.68.14,2.33,2.33,0,0,0,.58-1.26,1.62,1.62,0,0,0,0-.62,2.4,2.4,0,0,0-2-2Z"/><path class="cls-4" d="M67.05,24a.41.41,0,0,0,.08-.24.43.43,0,0,0-.08-.24l-1.37-2.2a.44.44,0,0,0-.17-.16.57.57,0,0,0-.22,0H56.61a.24.24,0,0,0-.14,0,.27.27,0,0,0-.07.13.16.16,0,0,0,0,.09.18.18,0,0,0,.07.08l1.14.92,5.41,1-6.42,6.94-8.76,1.24-.08,0-.06.05a.11.11,0,0,0,0,.07.22.22,0,0,0,0,.08v.1l1.24,1.32a.31.31,0,0,0,.18.09l8.63-.14a1,1,0,0,0,.47-.14l2.13-1.3,4.23,3.36a.38.38,0,0,1,.11.14.49.49,0,0,1,.06.17l.82,6.07a.28.28,0,0,0,.08.15.24.24,0,0,0,.16,0h.91a.21.21,0,0,0,.14-.07.21.21,0,0,0,.07-.15l.15-6.9a.8.8,0,0,0-.15-.47L63.18,29Z"/></g></svg>