<svg xmlns="http://www.w3.org/2000/svg" viewBox="0 0 237.24 155.8"><defs><style>.cls-1{fill:#7cbb48;}</style></defs><title>geco_icon</title><g id="Layer_2" data-name="Layer 2"><g id="Livello_1" data-name="Livello 1"><path class="cls-1" d="M185.85,41.22a61.31,61.31,0,0,0,.91-6.64,16.91,16.91,0,0,0-.42-4.94c-.5-1.86.14-2.65-.14-4.68s-.83-4.05,1.66-7.1A42.07,42.07,0,0,0,191,13.74s-2.15-3.85,3-5.38c3.27-5,6.41-8.84,9.29-8.32s5.46,4,6.88,10.93c2.29,1.2,2.8,3.33,1,6,1.62,4.42,1.07,4.43,1.54,5.46a5.82,5.82,0,0,1-.32,4.2c-.61,1.62-1.8,4.19-1.8,4.19a12.17,12.17,0,0,1-2,8.43c-2.85,4.38-4.61,6.42-3.9,7.83s.71,3.72,4.2,4.39A15.87,15.87,0,0,1,214.82,54s7.88-3.81,8.14-4.37-1-4.27-1-4.27-1.17-2.17.29-1.22,3.33,2.77,2.72.58.18-3.31,1.44-3.41,1.11.24,1.16,1.9a6.56,6.56,0,0,1-.74,3.05s3-.09,3.78,1.21A13,13,0,0,1,231.73,50s4.14.43,4.62,1.74,1.55,2.21.3,2.58a3.9,3.9,0,0,1-2.87-.25,23.65,23.65,0,0,0-2.89-.8l-.87.41s3.55,2.87,3.1,4.15-1,2.4-1,2.4-.17,1.55-1.23-.57-1.6-3.87-2.17-4.4-2.06-2.58-3.54-.28-4.77,10.28-9.78,10.26-7-4.31-10.59-4.37-4.36,3.54-8,7.56-3.6,6.88-5,9.62S178.92,101.53,157,102.89c-3.95.61-9.43,1.6-9.67,2.71s-1.75,13.44-7.39,18.56c-1.17,1.36-9.31,1.92-9.31,1.92s-3,.8-3.47,1.92c3.48.39,4.88.91,5.23,1.88s-.44,2.11-.77,2a13.84,13.84,0,0,1-4.32-.92l-2.51-1s1.48,3.54,2.83,4.44,2.1,4,2.1,4,.17-1.55-.5-.09l-1,2.12s-1.33-2.11-2-3.24a17,17,0,0,0-4.42-4.22c-1.12-.52-2,.17-2.47,2.11s-1.64,6.16-2.29,6.4a10.56,10.56,0,0,0-1.63.87l-.47,1a29.33,29.33,0,0,0-.48-3.34c-.32-1.37-.6-1.64,1-4.71s2.63-6,.61-7.18-3.36,2-3.36,2-2.4.79-3,.53l-.56-.26s-2,2.87-2.1,1.6a6.14,6.14,0,0,1,1.12-3,42.43,42.43,0,0,1,3.79-2.32,29.53,29.53,0,0,0,5.87-4.47,12.85,12.85,0,0,1,6.84-3.34c2.8-.47,7.8-.73,8-2.38s-.88-9.23.71-11.48c-3.91,0-8.31.35-9.93,1.5s-6.59.27-9.38,1-10.59,1.47-23.48,12.86-28.68,35.09-49,35.57c0,0-19.28,0-30.95-12.59-4.37-4.33-5.29-5.57-9.18-8.6-1.31-1.56-2.23-2.8-.73-2.24S4,133.71,4.4,133.92s6,3.85,8.64,5.37,13.22,11,28,9,22.33-8.64,34.13-23.54,22.25-30.87,41.77-37.56c5.46-1.54,16.6-2.55,16.6-2.55s-.63-1,1-4.27a39.76,39.76,0,0,0,2.42-5.8s-7.71.23-10.93-2.49c-2,1.66-2.63,2.45-3.2,3.67s-1.08.58-2.51.74a8.45,8.45,0,0,0-2.47.35c-.38.23-1.39-.51-1-.85a33.12,33.12,0,0,1,2.52-2.5c1.29-1,3.43-1.26,3.86-1.87s2.08-2.43,1.42-4.23a5.63,5.63,0,0,0-3-3c-.67-.31-3.62-1.27-4.54-2.51s-1.39-2.27-1.67-2.54-.77-1.85.29-1.22a17.17,17.17,0,0,1,1.86,1.27s2.68-.52,3.55.83,5.08,4,5.94,3.3,1-1.18.47-2.77-.91-2.73-.12-4.13,2.27-3.43,2.27-3.43.2,1.32.65,1.52,2.31,1.75,1.43,3.65A10,10,0,0,0,131,63c.07.71,2.46-.62,2.87-1.52a9.6,9.6,0,0,1,2.68-2.56c.59-.4,2.25-.18,1.78.55s-.19,2.76-1.62,2.91-3.26,1.47-1.81,2.15,5.51.11,6.78,0,6.5,0,6.73,3.93.05,9.25-.81,12c2.9-.69,5-1.47,6.29-3.33s4.58-5.2,11.47-8.93c2.23-1,8.17-7.07,10.18-9.94A24.38,24.38,0,0,0,180,51.69s-3.07.47-6.53.91-3.19-1.61-2.9-3.11-.83-5.81-3-5.86-3.46-1.61-3.31-1.94,1-.75,1-.75l-.58-.81s1.51.84,2.4,1.25,4,1.7,4.52,2,2.28-1.11,1.11-3.28a4.4,4.4,0,0,1-.23-4.18,12,12,0,0,0,.2-2.49,13.22,13.22,0,0,0,1.72,2.43c.68.59,2,3.08,1.22,4.1a3.65,3.65,0,0,0-.19,2.76s1.48,1.5,2.39.7,3.85-2.15,5-2A13.92,13.92,0,0,0,185.85,41.22Z"/></g></g></svg>