<svg xmlns="http://www.w3.org/2000/svg" viewBox="0 0 533 512"><path d="M524.9 74c-4.8-6.5-12.5-10-20.5-9.5L384.8 72c-8.8 .5-16.3 5.6-20 13.7c-3.7 7.9-2.8 17 2.4 24.1l34.9 47.4-58.2 37.1c-16.6-21-40.8-36.1-69.2-40.5c-28.8-4.3-57.6 2.7-81.1 20.1c-1.2 .9-2.3 1.9-3.5 2.9L151.9 133c7.1-8.9 14.2-18 21.1-27.1h0c11.4-15.4 9-37.8-5.6-50.2c-19.7-16.6-40.1-32.9-60.8-48.6C91.3-4.3 68.9-1.8 56.4 12.7C39.5 32.3 23.1 52.7 7.6 73.4c-11.4 15.4-8.9 37.8 5.6 50.2c19.8 16.8 40.3 33 60.8 48.6c6.4 4.8 14.2 7.2 21.9 7.2c10.5 0 21.1-4.4 28.3-12.9c6-7.1 11.9-14.5 18-21.8l36.7 42.1c-15.2 16.1-25.1 36.1-28.5 58.4c-4.4 28.8 2.7 57.6 20.1 81.1c3.2 4.4 6.8 8.4 10.6 12.1l-36.8 43.8-17.1-14.4c-6.6-5.5-16.1-6.3-23.5-2l-57 33.4c-7.7 4.5-11.6 13.9-9.5 22.5L53 486.1c2.1 8.3 9.2 14.7 17.8 15.5l65.2 6.6c.7 0 1.4 0 2.1 0c8.1 0 15.6-4.8 18.8-12.5l26.3-62.1c3.5-8.3 1.2-17.9-5.7-23.6l-21.5-18.1 36.6-43.5c14.4 10.9 31.3 18.2 49.6 21c5.5 .8 11 1.2 16.6 1.2c23.1 0 45.6-7.3 64.5-21.3c23.5-17.3 38.9-42.7 43.2-71.5c3.9-25.7-1.6-50.6-13.8-71.4l58.6-37.4 33.1 45c4.5 6.2 11.4 9.6 18.9 9.6c1.1 0 2.2 0 3.3-.2c8.7-1.2 15.8-6.8 19-15.1l42.7-112c2.9-7.5 1.7-16-3.1-22.5h-.1zM112.7 156.8c-7.2 8.5-20.8 10-29.6 3.3C62.8 144.7 42.5 128.6 23 112c-8.4-7.1-9.9-20.8-3.3-29.6C35.1 62 51.3 41.7 67.8 22.3c4.2-4.9 10.5-7.5 16.9-7.5c4.6 0 9.1 1.3 12.9 4.1c20.5 15.5 40.8 31.6 60.1 48.1c8.4 7.2 9.9 20.8 3.3 29.7c-15.4 20.4-31.5 40.7-48.1 60.1h-.1zm56.2 271l-26.3 62.1c-.9 2.2-3.1 3.5-5.5 3.3l-65.2-6.6c-2.3-.2-4.2-1.9-4.7-4.1l-15.8-64.3c-.6-2.3 .5-4.7 2.5-5.9l57-33.4c.8-.5 1.8-.7 2.7-.7c1.2 0 2.5 .4 3.5 1.3l50.1 42.2c1.8 1.5 2.4 4 1.5 6.2h.1zm182.3-152.2c-7.8 51.3-55.9 86.7-107.1 78.9c-51.3-7.7-86.6-55.8-78.9-107.1c3.8-24.8 17-46.7 37.2-61.6c16.4-12 35.6-18.4 55.6-18.4c4.7 0 9.5 .4 14.4 1.1c51.3 7.7 86.6 55.8 78.9 107.1h-.1zM513.9 91.1l-42.7 112c-1.1 3-3.7 5-6.9 5.4s-6.2-.8-8.1-3.4l-77-104.6c-1.9-2.6-2.2-5.8-.9-8.7s4-4.7 7.2-4.9l119.7-7.5c2.9-.1 5.7 1.1 7.4 3.5s2.2 5.4 1.1 8.1h.2z"/></svg>