<svg xmlns="http://www.w3.org/2000/svg" xmlns:xlink="http://www.w3.org/1999/xlink" viewBox="0 0 27.51 30"><defs><style>.cls-1{fill:url(#Sfumatura_senza_nome_5);}.cls-2{fill:url(#Sfumatura_senza_nome_5-2);}.cls-3{fill:url(#Sfumatura_senza_nome_5-3);}</style><linearGradient id="Sfumatura_senza_nome_5" x1="16.37" y1="6.43" x2="27.51" y2="6.43" gradientUnits="userSpaceOnUse"><stop offset="0" stop-color="#0071bc"/><stop offset="1" stop-color="#3fa9f5"/></linearGradient><linearGradient id="Sfumatura_senza_nome_5-2" x1="7.96" y1="11.11" x2="24.95" y2="11.11" xlink:href="#Sfumatura_senza_nome_5"/><linearGradient id="Sfumatura_senza_nome_5-3" x1="0" y1="17.17" x2="22.03" y2="17.17" xlink:href="#Sfumatura_senza_nome_5"/></defs><title>tamtamy_icon</title><g id="Layer_2" data-name="Layer 2"><g id="Layer_1-2" data-name="Layer 1"><path class="cls-1" d="M26.19,0H17.69a1.33,1.33,0,0,0-1.33,1.33h0V9.64A1.33,1.33,0,0,0,17.69,11H21a.13.13,0,0,1,.12.15l-.26,1.59a.13.13,0,0,0,.21.11l1-1,.72-.72a.25.25,0,0,1,.18-.07h3.26a1.33,1.33,0,0,0,1.33-1.33V1.33A1.3,1.3,0,0,0,26.19,0Z"/><path class="cls-2" d="M23.29,12.19l-.46.46-1,1A1.25,1.25,0,0,1,21,14l-.14,0h0a.88.88,0,0,1-.4-.1.87.87,0,0,1-.3-.27L20,13.54a1.26,1.26,0,0,1-.28-1l.07-.41H17.69a2.46,2.46,0,0,1-2.46-2.46V1.33s0-.06,0-.09H10A2,2,0,0,0,8.12,2.47a2.1,2.1,0,0,0-.16.8v13a1.86,1.86,0,0,0,.4,1,2.06,2.06,0,0,0,.54.48A2.1,2.1,0,0,0,10,18h5.07a.13.13,0,0,1,.12.15l-.51,2.63a.13.13,0,0,0,.21.11l1.3-1.3,1.52-1.52a.25.25,0,0,1,.18-.07h5a2,2,0,0,0,2-2V12.19Z"/><path class="cls-3" d="M21.94,19.18H18.25L17,20.44l-1.3,1.3a1.25,1.25,0,0,1-.89.37h-.2a.86.86,0,0,1-.76-.45h0a1.25,1.25,0,0,1-.26-1l.28-1.43H10a3.23,3.23,0,0,1-1.67-.47A3.18,3.18,0,0,1,7.48,18a3,3,0,0,1-.64-1.59s0-.07,0-.1V4.33H2.65A2.66,2.66,0,0,0,0,7V23.44A2.65,2.65,0,0,0,.44,24.9a2.69,2.69,0,0,0,.51.57l.2.16a2.63,2.63,0,0,0,.45.25l.25.09a2.65,2.65,0,0,0,.8.12H9.22a.13.13,0,0,1,.12.15l-.69,3.61a.12.12,0,0,0,0,.07v0l0,0h.07a.12.12,0,0,0,.08,0l1.79-1.79,2-2a.25.25,0,0,1,.18-.07h6.53A2.66,2.66,0,0,0,22,23.44V19.18Z"/></g></g></svg>